<svg height="64" viewBox="0 0 64 64" width="64" xmlns="http://www.w3.org/2000/svg"><g fill="none" fill-rule="evenodd" transform="translate(5 7)"><path d="m34.4229 9.3516c2.103-2.139 2.103-5.607 0-7.747s-5.512-2.139-7.615 0l-.808.743-.807-.743c-2.103-2.139-5.513-2.139-7.616 0-2.103 2.14-2.102 5.608 0 7.747l8.423 8.648z" fill="#f16963"/><g stroke="#414547" stroke-linecap="round" stroke-linejoin="round" stroke-width="2"><path d="m34.4229 9.3516c2.103-2.139 2.103-5.607 0-7.747s-5.512-2.139-7.615 0l-.808.743-.807-.743c-2.103-2.139-5.513-2.139-7.616 0-2.103 2.14-2.102 5.608 0 7.747l8.423 8.648z"/><path d="m28.8071 26.4072c2.005 2.673 3.193 5.994 3.193 9.593 0 8.837-7.164 16-16 16-8.837 0-16-7.163-16-16s7.163-16 16-16c2.209 0 4.313.447 6.228 1.258"/><path d="m23.1929 45.5928c-2.005-2.673-3.193-5.994-3.193-9.593 0-8.837 7.164-16 16-16 8.837 0 16 7.163 16 16s-7.163 16-16 16c-2.402 0-4.68-.529-6.724-1.477"/></g></g></svg>